<svg xmlns="http://www.w3.org/2000/svg" version="1.1" xmlns:xlink="http://www.w3.org/1999/xlink" width="700" height="700"><svg width="700" height="700" viewBox="0 0 700 700" fill="none" xmlns="http://www.w3.org/2000/svg">
<path d="M522.266 185.938C466.389 185.938 421.832 214.006 394.297 237.562L393.326 238.396L377.645 255.445L412.262 312.334L437.883 286.645C464.693 264.004 494.621 251.562 522.266 251.562C578.047 251.562 623.438 295.723 623.438 350C623.438 404.277 578.047 448.438 522.266 448.438C437.5 448.438 379.887 336.396 379.312 335.262C375.977 328.521 302.914 185.938 177.734 185.938C85.7637 185.938 10.9375 259.533 10.9375 350C10.9375 440.467 85.7637 514.062 177.734 514.062C222.783 514.062 267.121 496.139 305.963 462.219L306.797 461.48L322.355 444.555L287.725 387.666L261.98 413.479C235.156 436.68 206.801 448.438 177.734 448.438C121.953 448.438 76.5625 404.277 76.5625 350C76.5625 295.723 121.953 251.562 177.734 251.562C262.5 251.562 320.113 363.604 320.688 364.738C324.023 371.479 397.086 514.062 522.266 514.062C614.236 514.062 689.062 440.467 689.062 350C689.062 259.533 614.236 185.938 522.266 185.938Z" fill="#D50032"></path>
</svg><style>@media (prefers-color-scheme: light) { :root { filter: none; } }
@media (prefers-color-scheme: dark) { :root { filter: none; } }
</style></svg>