<svg width="211" height="49" viewBox="0 0 211 49" fill="none" xmlns="http://www.w3.org/2000/svg">
<path d="M175.805 46.0725V14.4799H183.09V46.0725H175.805ZM179.448 8.68795C178.211 8.68795 177.173 8.27111 176.335 7.43742C175.54 6.60372 175.142 5.57258 175.142 4.34398C175.142 3.11538 175.54 2.08423 176.335 1.25054C177.173 0.416846 178.211 0 179.448 0C180.728 0 181.766 0.416846 182.561 1.25054C183.355 2.08423 183.753 3.11538 183.753 4.34398C183.753 5.57258 183.355 6.60372 182.561 7.43742C181.766 8.27111 180.728 8.68795 179.448 8.68795Z" fill="#FDFDFD"/>
<path d="M48.2529 22.5097C46.9282 23.7822 46.2659 25.7786 46.2659 28.4991V46.0725H38.9801V14.4799H46.2659V17.7615C46.3094 17.6983 46.3536 17.6356 46.3983 17.5734C48.2087 15.0723 50.9244 13.8217 54.5452 13.8217C56.1348 13.8217 57.5699 14.107 58.8504 14.6774C60.131 15.2478 61.3232 16.1692 62.4271 17.4417L57.6582 22.3122C57.0842 21.6979 56.4439 21.2592 55.7374 20.9959C55.0309 20.7326 54.214 20.601 53.2867 20.601C51.2555 20.601 49.5776 21.2372 48.2529 22.5097Z" fill="#FDFDFD"/>
<path d="M7.61697 22.1148V6.58178H16.8236C18.4132 6.58178 19.8041 6.91087 20.9963 7.56905C22.2327 8.18335 23.2042 9.08286 23.9107 10.2676C24.6172 11.4084 24.9704 12.7687 24.9704 14.3483C24.9704 15.9279 24.6172 17.3101 23.9107 18.4948C23.2042 19.6357 22.2327 20.5352 20.9963 21.1933C19.8041 21.8076 18.4132 22.1148 16.8236 22.1148H7.61697ZM7.61697 46.0725V28.6966H17.221C20.1353 28.6966 22.7405 28.1042 25.0367 26.9195C27.3769 25.7348 29.2094 24.0674 30.5341 21.9173C31.903 19.7673 32.5874 17.2443 32.5874 14.3483C32.5874 11.4523 31.903 8.92929 30.5341 6.77924C29.2094 4.62919 27.3769 2.9618 25.0367 1.77708C22.7405 0.59236 20.1353 0 17.221 0H0V46.0725H7.61697Z" fill="#FDFDFD"/>
<path d="M138.199 14.4799L152.704 46.0725H156.943L171.449 14.4799H163.699L154.963 34.6836L146.28 14.4799H138.199Z" fill="#FDFDFD"/>
<path d="M196.097 14.4799V1.31636H203.383V14.4799H211V21.0617H203.383V46.0725H196.097V21.0617H188.48V14.4799H196.097Z" fill="#FDFDFD"/>
<path d="M119.562 12.286C113.318 12.286 108.339 15.4266 105.263 18.0623L105.154 18.1556L103.402 20.0632L107.27 26.4285L110.133 23.5541C113.129 21.0209 116.473 19.6288 119.562 19.6288C125.794 19.6288 130.866 24.5699 130.866 30.643C130.866 36.7161 125.794 41.6572 119.562 41.6572C110.09 41.6572 103.652 29.1209 103.588 28.9939C103.216 28.2398 95.0518 12.286 81.0645 12.286C70.7879 12.286 62.4271 20.5206 62.4271 30.643C62.4271 40.7654 70.7879 49 81.0645 49C86.0981 49 91.0523 46.9945 95.3924 43.1992L95.4856 43.1166L97.2241 41.2228L93.3545 34.8575L90.4779 37.7456C87.4807 40.3416 84.3123 41.6572 81.0645 41.6572C74.8317 41.6572 69.7598 36.7161 69.7598 30.643C69.7598 24.5699 74.8317 19.6288 81.0645 19.6288C90.536 19.6288 96.9735 32.1651 97.0377 32.2921C97.4105 33.0462 105.574 49 119.562 49C129.838 49 138.199 40.7654 138.199 30.643C138.199 20.5206 129.838 12.286 119.562 12.286Z" fill="#D50032"/>
</svg>
